REM DIRINDEX 1\2\6,1\2\7,1\2\8,1\2\9,1\3\10,1\3\11,1\4\12,1\4\13,1\4\14,1\5\15,1\5\16,1\5\17
REM DIRNAME folder01,folder02,folder03,folder04,folder05,folder06,folder07,folder08,folder09,folder10,folder11,folder12,folder13,folder14,folder15,folder16,folder17
TITLE ""
FILE "1400_3_sec01_0067_0084.mp3" MP3
  TRACK 01 AUDIO
    TITLE "0:"
    INDEX 01 00:00:00
  TRACK 02 AUDIO
    TITLE "17:cjc029_4560"
    INDEX 01 00:00:15
  TRACK 03 AUDIO
    TITLE "0:"
    INDEX 01 00:01:19
  TRACK 04 AUDIO
    TITLE "16:cjc029_4561"
    INDEX 01 00:01:24
  TRACK 05 AUDIO
    TITLE "0:"
    INDEX 01 00:02:28
  TRACK 06 AUDIO
    TITLE "17:cjc029_4562"
    INDEX 01 00:03:14
  TRACK 07 AUDIO
    TITLE "0:"
    INDEX 01 00:04:17
  TRACK 08 AUDIO
    TITLE "16:cjc029_4563"
    INDEX 01 00:04:21
  TRACK 09 AUDIO
    TITLE "0:"
    INDEX 01 00:05:40
  TRACK 10 AUDIO
    TITLE "17:cjc029_4564"
    INDEX 01 00:06:28
  TRACK 11 AUDIO
    TITLE "0:"
    INDEX 01 00:07:31
  TRACK 12 AUDIO
    TITLE "16:cjc029_4565"
    INDEX 01 00:07:39
  TRACK 13 AUDIO
    TITLE "0:"
    INDEX 01 00:08:44
  TRACK 14 AUDIO
    TITLE "17:cjc029_4566"
    INDEX 01 00:09:28
  TRACK 15 AUDIO
    TITLE "0:"
    INDEX 01 00:10:61
  TRACK 16 AUDIO
    TITLE "16:cjc029_4567"
    INDEX 01 00:10:65
  TRACK 17 AUDIO
    TITLE "0:"
    INDEX 01 00:12:01
  TRACK 18 AUDIO
    TITLE "17:cjc029_4568"
    INDEX 01 00:12:63
  TRACK 19 AUDIO
    TITLE "0:"
    INDEX 01 00:13:71
  TRACK 20 AUDIO
    TITLE "16:cjc029_4569"
    INDEX 01 00:14:00
  TRACK 21 AUDIO
    TITLE "0:"
    INDEX 01 00:15:27
  TRACK 22 AUDIO
    TITLE "17:cjc029_4570"
    INDEX 01 00:16:10
  TRACK 23 AUDIO
    TITLE "0:"
    INDEX 01 00:17:20
  TRACK 24 AUDIO
    TITLE "16:cjc029_4571"
    INDEX 01 00:17:25
  TRACK 25 AUDIO
    TITLE "0:"
    INDEX 01 00:18:35
  TRACK 26 AUDIO
    TITLE "17:cjc029_4572"
    INDEX 01 00:19:20
  TRACK 27 AUDIO
    TITLE "0:"
    INDEX 01 00:20:43
  TRACK 28 AUDIO
    TITLE "16:cjc029_4573"
    INDEX 01 00:20:49
  TRACK 29 AUDIO
    TITLE "0:"
    INDEX 01 00:21:74
  TRACK 30 AUDIO
    TITLE "17:cjc029_4574"
    INDEX 01 00:22:58
  TRACK 31 AUDIO
    TITLE "0:"
    INDEX 01 00:23:53
  TRACK 32 AUDIO
    TITLE "16:cjc029_4575"
    INDEX 01 00:23:59
  TRACK 33 AUDIO
    TITLE "0:"
    INDEX 01 00:24:67
  TRACK 34 AUDIO
    TITLE "17:cjc029_4576"
    INDEX 01 00:25:52
  TRACK 35 AUDIO
    TITLE "0:"
    INDEX 01 00:26:71
  TRACK 36 AUDIO
    TITLE "16:cjc029_4577"
    INDEX 01 00:27:00
  TRACK 37 AUDIO
    TITLE "0:"
    INDEX 01 00:28:23
  TRACK 38 AUDIO
    TITLE "17:cjc029_4578"
    INDEX 01 00:29:05
  TRACK 39 AUDIO
    TITLE "0:"
    INDEX 01 00:30:20
  TRACK 40 AUDIO
    TITLE "16:cjc029_4579"
    INDEX 01 00:30:28
  TRACK 41 AUDIO
    TITLE "0:"
    INDEX 01 00:31:31
  TRACK 42 AUDIO
    TITLE "17:cjc029_4580"
    INDEX 01 00:32:15
  TRACK 43 AUDIO
    TITLE "0:"
    INDEX 01 00:33:32
  TRACK 44 AUDIO
    TITLE "16:cjc029_4581"
    INDEX 01 00:33:40
  TRACK 45 AUDIO
    TITLE "0:"
    INDEX 01 00:34:67
  TRACK 46 AUDIO
    TITLE "17:cjc029_4582"
    INDEX 01 00:35:55
  TRACK 47 AUDIO
    TITLE "0:"
    INDEX 01 00:36:68
  TRACK 48 AUDIO
    TITLE "16:cjc029_4583"
    INDEX 01 00:36:74
  TRACK 49 AUDIO
    TITLE "0:"
    INDEX 01 00:37:65
  TRACK 50 AUDIO
    TITLE "17:cjc029_4584"
    INDEX 01 00:38:51
  TRACK 51 AUDIO
    TITLE "0:"
    INDEX 01 00:39:74
  TRACK 52 AUDIO
    TITLE "16:cjc029_4585"
    INDEX 01 00:40:05
  TRACK 53 AUDIO
    TITLE "0:"
    INDEX 01 00:41:04
  TRACK 54 AUDIO
    TITLE "17:cjc029_4586"
    INDEX 01 00:41:63
  TRACK 55 AUDIO
    TITLE "0:"
    INDEX 01 00:43:11
  TRACK 56 AUDIO
    TITLE "16:cjc029_4587"
    INDEX 01 00:43:15
  TRACK 57 AUDIO
    TITLE "0:"
    INDEX 01 00:44:18
  TRACK 58 AUDIO
    TITLE "17:cjc029_4588"
    INDEX 01 00:45:02
  TRACK 59 AUDIO
    TITLE "0:"
    INDEX 01 00:46:23
  TRACK 60 AUDIO
    TITLE "16:cjc029_4589"
    INDEX 01 00:46:27
  TRACK 61 AUDIO
    TITLE "0:"
    INDEX 01 00:47:27
  TRACK 62 AUDIO
    TITLE "17:cjc029_4590"
    INDEX 01 00:48:10
  TRACK 63 AUDIO
    TITLE "0:"
    INDEX 01 00:49:21
  TRACK 64 AUDIO
    TITLE "16:cjc029_4591"
    INDEX 01 00:49:27
  TRACK 65 AUDIO
    TITLE "0:"
    INDEX 01 00:50:31
  TRACK 66 AUDIO
    TITLE "17:cjc029_4592"
    INDEX 01 00:51:16
  TRACK 67 AUDIO
    TITLE "0:"
    INDEX 01 00:52:41
  TRACK 68 AUDIO
    TITLE "16:cjc029_4593"
    INDEX 01 00:52:45
  TRACK 69 AUDIO
    TITLE "0:"
    INDEX 01 00:53:43
  TRACK 70 AUDIO
    TITLE "17:cjc029_4594"
    INDEX 01 00:54:27
  TRACK 71 AUDIO
    TITLE "0:"
    INDEX 01 00:57:60
  TRACK 72 AUDIO
    TITLE "16:cjc029_4595"
    INDEX 01 00:57:64
  TRACK 73 AUDIO
    TITLE "0:"
    INDEX 01 00:59:00
